<?xml version="1.0" encoding="UTF-8" standalone="no"?>
<!-- Created with Inkscape (http://www.inkscape.org/) -->

<svg
   width="177.66803mm"
   height="67.830704mm"
   viewBox="0 0 177.66803 67.830704"
   version="1.1"
   id="svg1"
   inkscape:version="1.3 (0e150ed, 2023-07-21)"
   sodipodi:docname="fau_logo.svg"
   xmlns:inkscape="http://www.inkscape.org/namespaces/inkscape"
   xmlns:sodipodi="http://sodipodi.sourceforge.net/DTD/sodipodi-0.dtd"
   xmlns="http://www.w3.org/2000/svg"
   xmlns:svg="http://www.w3.org/2000/svg">
  <sodipodi:namedview
     id="namedview1"
     pagecolor="#ffffff"
     bordercolor="#000000"
     borderopacity="0.25"
     inkscape:showpageshadow="2"
     inkscape:pageopacity="0.0"
     inkscape:pagecheckerboard="0"
     inkscape:deskcolor="#d1d1d1"
     inkscape:document-units="mm"
     inkscape:zoom="0.2102413"
     inkscape:cx="347.22007"
     inkscape:cy="266.3606"
     inkscape:window-width="1312"
     inkscape:window-height="449"
     inkscape:window-x="2243"
     inkscape:window-y="180"
     inkscape:window-maximized="0"
     inkscape:current-layer="layer1" />
  <defs
     id="defs1" />
  <g
     inkscape:label="Layer 1"
     inkscape:groupmode="layer"
     id="layer1"
     transform="translate(-12.985632,-78.000654)">
    <path
       id="path50"
       d="m 81.066102,115.81173 h 3.446286 L 93.556553,94.350144 91.83535,90.262504 Z M 95.27458,98.430374 87.949502,115.81173 H 102.59331 Z M 79.61936,119.2492 69.452304,143.31111 H 66.01519 L 91.828294,82.081944 106.03042,115.81173 h 3.43747 L 93.54738,78.000654 h 3.437467 L 114.3528,119.2492 Z m 20.8026,-41.248546 26.47915,62.892516 2.18228,-2.97039 -25.22396,-59.922126 z m -13.749161,0 -25.263123,59.922126 2.188633,2.97039 26.511604,-62.892516 z m -5.057775,44.686006 -8.692445,20.62445 3.43782,-7e-4 -3.53e-4,7e-4 h 3.53e-4 l 4.345869,-10.3124 h 29.123222 l 4.34234,10.3124 h 3.43711 l -5.78908,-13.74987 H 82.154774 l 1.448859,-3.43711 h 30.206247 l 7.23653,17.18698 h 3.43747 l -8.68398,-20.62445 z m -61.754777,20.62445 h 3.437502 v -17.18698 h 3.437538 v 14.30091 l 3.437079,-3.43747 v -10.86344 h 26.33899 v -3.43747 H 19.860247 Z M 61.686959,108.93679 H 30.172366 V 95.187634 h 28.076773 l 3.43782,-3.43782 H 30.172366 v -3.43711 h 34.373857 v -3.43747 H 26.735287 V 112.37426 H 58.294648 Z M 23.297749,81.438124 h 41.248474 v -3.43747 H 19.860247 V 119.2492 h 36.651109 v -3.43747 H 23.297749 Z m -10.312117,2.88572 3.43736,-3.43747 v 62.424736 h -3.43736 z M 159.12842,139.01428 c 10.43587,0 17.76589,-7.72866 17.77506,-18.161 h 3.6e-4 V 80.886374 l -3.43747,3.43747 v 33.206616 c 0,6.64422 -5.38657,11.17142 -12.03078,11.17142 -7.20302,0 -12.03078,-3.59022 -12.03078,-11.17142 V 78.000654 h -3.43747 v 39.529806 c 0,9.52712 6.28791,14.60888 15.46825,14.60888 3.49356,0 7.73324,-1.72579 10.61332,-4.76356 l 0.0776,0.10125 c -2.70052,5.00768 -6.56167,8.09978 -12.9981,8.09978 -9.24983,0 -16.5982,-6.61741 -16.5982,-16.38512 V 78.000654 h -3.43746 l 0.001,41.219966 c 0,11.68471 8.94856,19.79366 20.03425,19.79366 z m 28.08782,-61.013626 v 39.529806 c 0,9.19868 -4.10422,17.10091 -13.68108,23.16233 l -0.0773,-0.10089 c 6.29285,-4.9911 10.32051,-11.40107 10.32051,-19.68112 V 78.000654 h -3.43711 v 42.852626 c -3.5e-4,12.33981 -10.00337,21.59811 -22.34318,21.59811 -12.33946,0 -22.34283,-9.2583 -22.34283,-21.59811 V 80.886374 l -3.43747,3.43747 v 36.586936 c 0,14.23811 11.54219,24.92058 25.7803,24.92058 0.32949,0 3.43746,0 3.43746,0 14.02081,0 29.21812,-10.35368 29.21812,-28.25045 0,-0.0169 0,-39.580256 0,-39.580256 h -3.43747"
       style="fill:#ffffff;fill-opacity:1;fill-rule:nonzero;stroke:none;stroke-width:0.0352778" />
  </g>
</svg>
